<svg xmlns="http://www.w3.org/2000/svg" xmlns:xlink="http://www.w3.org/1999/xlink" width="500" zoomAndPan="magnify" viewBox="0 0 375 374.999991" height="500" preserveAspectRatio="xMidYMid meet" version="1.0"><defs><g/><clipPath id="e7887bb74d"><path d="M 175 114 L 262.5 114 L 262.5 238.292969 L 175 238.292969 Z M 175 114 " clip-rule="nonzero"/></clipPath><clipPath id="3afe767e71"><path d="M 112.5 114 L 198 114 L 198 238.292969 L 112.5 238.292969 Z M 112.5 114 " clip-rule="nonzero"/></clipPath></defs><rect x="-37.5" width="450" fill="#ffffff" y="-37.499999" height="449.999989" fill-opacity="1"/><rect x="-37.5" width="450" fill="#ffffff" y="-37.499999" height="449.999989" fill-opacity="1"/><g clip-path="url(#e7887bb74d)"><path fill="#5271ff" d="M 198.007812 154.84375 C 198.035156 153.113281 198.25 149.53125 198.21875 146.980469 C 193.238281 156.273438 184.34375 158.550781 175.902344 155.9375 C 181.519531 156.605469 186.679688 153.933594 187.53125 142.488281 C 188.046875 135.867188 190.445312 132.984375 192.996094 131.828125 C 192.386719 129.1875 192.207031 126.425781 192.875 123.84375 C 196.941406 108.570312 229.21875 115.3125 221.386719 118.589844 C 216.285156 120.714844 211.761719 126.425781 212.613281 125.636719 C 222.570312 116.375 223.511719 122.171875 224.148438 125.636719 C 224.878906 129.523438 222.449219 131.160156 224.148438 136.535156 C 227.613281 139.117188 224.789062 139.601562 224.789062 139.601562 C 224.542969 140.484375 224.910156 142.457031 224.148438 142.488281 C 222.875 142.546875 223.359375 144.035156 224.148438 144.21875 C 220.839844 154.96875 219.746094 153.207031 213.824219 150.535156 C 202.5 171.941406 234.292969 168.054688 228.917969 181.503906 C 228.402344 182.78125 228.007812 184.601562 227.703125 186.820312 C 225.730469 185.390625 223.785156 183.691406 222.785156 182.691406 C 223.179688 183.753906 225.273438 187.246094 229.675781 189.703125 C 232.773438 192.617188 235.355469 194.5625 236.597656 194.441406 C 239.027344 194.199219 242.976562 190.980469 246.679688 186.789062 C 238.875 186.304688 232.683594 179.804688 232.683594 171.878906 C 232.683594 168.359375 233.898438 165.109375 235.960938 162.527344 C 238.511719 160.464844 241.761719 159.25 245.3125 159.25 C 253.542969 159.25 260.253906 165.929688 260.253906 174.1875 C 260.253906 177.710938 259.039062 180.957031 256.972656 183.539062 C 255.667969 184.574219 254.210938 185.390625 252.632812 185.96875 C 247.925781 195.414062 240.757812 207.832031 236.296875 206.527344 C 233.472656 205.675781 230.34375 203.824219 227.15625 201.453125 C 227.582031 214.601562 230.222656 230.242188 235.929688 238.074219 L 187.925781 238.074219 C 198.582031 229.269531 199.554688 215.332031 198.007812 207.101562 C 188.378906 204.976562 177.207031 201.667969 177.722656 197.628906 C 180.425781 176.191406 186.894531 166.6875 192.8125 160.523438 L 192.90625 160.707031 C 192.875 160.644531 192.875 160.554688 192.875 160.492188 C 194.300781 159.003906 195.730469 157.699219 197.035156 156.453125 C 198.675781 155.542969 200.40625 154.785156 201.4375 154.421875 C 200.890625 154.328125 199.617188 154.390625 198.007812 154.84375 Z M 193.148438 181.230469 C 190.445312 186.03125 187.042969 191.921875 187.925781 193.136719 C 189.199219 194.925781 193.390625 198.875 196.546875 201.089844 C 195.210938 196.324219 193.238281 181.960938 193.148438 181.230469 Z M 236.050781 162.375 C 238.785156 159.066406 242.945312 156.941406 247.5625 156.941406 C 255.789062 156.941406 262.5 163.621094 262.5 171.878906 C 262.5 176.253906 260.617188 180.167969 257.640625 182.902344 C 259.765625 180.320312 261.074219 177.011719 261.074219 173.398438 C 261.074219 165.167969 254.394531 158.457031 246.132812 158.457031 C 242.246094 158.457031 238.726562 159.945312 236.050781 162.375 Z M 247.5625 164.714844 C 251.507812 164.714844 254.726562 167.933594 254.726562 171.878906 C 254.726562 175.828125 251.507812 179.046875 247.5625 179.046875 C 243.613281 179.046875 240.394531 175.828125 240.394531 171.878906 C 240.394531 167.933594 243.613281 164.714844 247.5625 164.714844 Z M 244.675781 169.875 C 245.3125 168.964844 246.375 168.359375 247.589844 168.359375 C 249.535156 168.359375 251.113281 169.9375 251.113281 171.878906 C 251.113281 173.367188 250.203125 174.644531 248.898438 175.160156 C 249.292969 174.582031 249.535156 173.914062 249.535156 173.15625 C 249.535156 171.210938 247.957031 169.632812 246.011719 169.632812 C 245.527344 169.632812 245.070312 169.722656 244.675781 169.875 Z M 244.675781 169.875 " fill-opacity="1" fill-rule="evenodd"/></g><g clip-path="url(#3afe767e71)"><path fill="#242424" d="M 163.238281 217.914062 C 163.117188 215.542969 162.964844 213.023438 162.84375 210.472656 C 163.480469 208.589844 164.394531 206.675781 164.96875 205.644531 C 164.269531 206.132812 162.539062 207.921875 161.449219 210.714844 C 159.292969 216.242188 155.375 217.152344 154.585938 217.183594 C 149.027344 217.457031 136.09375 203.035156 127.074219 195.289062 C 118.9375 194.714844 112.5 187.941406 112.5 179.652344 C 112.5 171 119.515625 163.984375 128.167969 163.984375 C 136.820312 163.984375 143.835938 171 143.835938 179.652344 C 143.835938 183.902344 142.136719 187.789062 139.371094 190.613281 L 142.105469 192.832031 C 144.535156 194.804688 147.601562 195.535156 150.484375 195.078125 C 151.609375 195.140625 152.640625 195.320312 153.582031 195.5625 C 153.007812 195.167969 152.277344 194.867188 151.457031 194.59375 C 152.214844 192.101562 153.949219 189.460938 156.46875 187.214844 C 157.53125 186.273438 158.625 185.484375 159.746094 184.84375 C 160.75 184.359375 161.75 183.964844 162.722656 183.660156 L 162.753906 183.386719 L 162.753906 183.265625 C 161.75 183.296875 160.628906 183.507812 159.441406 183.875 C 157.835938 180.929688 158.199219 176.070312 160.65625 171.515625 C 162.964844 167.234375 166.488281 164.351562 169.675781 163.773438 C 170.253906 163.164062 170.890625 162.589844 171.589844 162.074219 C 173.714844 160.464844 176.082031 159.097656 178.421875 157.914062 C 184.160156 158.855469 190.171875 157.425781 194.542969 153.78125 C 194.605469 154.175781 194.664062 154.542969 194.757812 154.90625 C 195.0625 155.242188 195.363281 155.574219 195.636719 155.910156 C 194.210938 157.246094 192.8125 158.582031 191.476562 159.976562 C 182.246094 169.722656 178.390625 183.054688 176.539062 196.140625 C 176.203125 198.660156 177.175781 200.605469 178.816406 201.847656 C 184.070312 205.734375 190.566406 206.828125 196.792969 208.195312 C 198.21875 217.609375 195.972656 227.8125 189.414062 234.765625 C 188.835938 235.402344 188.652344 235.585938 187.46875 236.617188 C 186.894531 237.101562 186.621094 237.617188 186.589844 238.042969 L 161.507812 238.042969 C 162.175781 237.101562 162.660156 235.734375 162.964844 233.976562 C 165.941406 232.152344 168.15625 232.609375 168.035156 232.425781 C 167.460938 231.394531 165.636719 230.726562 163.207031 231.941406 C 163.359375 230.390625 163.421875 228.632812 163.421875 226.6875 C 167.035156 223.863281 169.886719 224.472656 169.765625 224.257812 C 169.070312 223.011719 166.578125 222.316406 163.421875 224.746094 C 163.390625 223.164062 163.328125 221.496094 163.269531 219.734375 C 167.703125 214.875 171.679688 215.757812 171.527344 215.511719 C 170.769531 214.027344 167.308594 213.296875 163.238281 217.914062 Z M 117.964844 171.453125 C 120.210938 169.664062 123.066406 168.570312 126.164062 168.570312 C 133.421875 168.570312 139.28125 174.460938 139.28125 181.6875 C 139.28125 184.785156 138.1875 187.640625 136.398438 189.886719 C 134.148438 191.675781 131.296875 192.769531 128.199219 192.769531 C 120.941406 192.769531 115.082031 186.878906 115.082031 179.652344 C 115.082031 176.554688 116.144531 173.703125 117.964844 171.453125 Z M 118.085938 171.304688 C 120.484375 168.386719 124.128906 166.535156 128.199219 166.535156 C 135.457031 166.535156 141.316406 172.425781 141.316406 179.652344 C 141.316406 183.480469 139.675781 186.941406 137.035156 189.339844 C 138.917969 187.0625 140.039062 184.148438 140.039062 180.988281 C 140.039062 173.730469 134.148438 167.871094 126.921875 167.871094 C 123.523438 167.871094 120.425781 169.148438 118.085938 171.304688 Z M 128.199219 173.367188 C 131.660156 173.367188 134.484375 176.191406 134.484375 179.652344 C 134.484375 183.113281 131.660156 185.9375 128.199219 185.9375 C 124.738281 185.9375 121.914062 183.113281 121.914062 179.652344 C 121.914062 176.191406 124.738281 173.367188 128.199219 173.367188 Z M 125.648438 177.890625 C 126.195312 177.074219 127.136719 176.554688 128.199219 176.554688 C 129.898438 176.554688 131.296875 177.953125 131.296875 179.652344 C 131.296875 180.957031 130.476562 182.082031 129.351562 182.539062 C 129.6875 182.050781 129.898438 181.445312 129.898438 180.777344 C 129.898438 179.078125 128.503906 177.679688 126.800781 177.679688 C 126.40625 177.679688 126.011719 177.742188 125.648438 177.890625 Z M 179.605469 154.421875 C 179.027344 153.234375 178.269531 151.929688 177.328125 150.503906 C 173.472656 152.992188 171.101562 153.8125 170.039062 146.007812 L 168.613281 144.703125 C 169.3125 143.335938 170.558594 143.125 168.613281 142.578125 L 167.398438 138.175781 C 164.878906 138.78125 164.179688 137.964844 167.398438 134.015625 C 166.488281 129.21875 167.125 129.308594 167.398438 126.089844 C 165.484375 123.296875 167.214844 119.714844 170.039062 117.921875 C 175.902344 114.25 188.867188 111.941406 194.9375 117.863281 C 194.695312 118.074219 194.484375 118.316406 194.269531 118.558594 C 189.988281 123.296875 191.476562 131.101562 191.476562 131.101562 C 188.5625 132.953125 187.136719 136.355469 186.558594 139.632812 C 186.4375 140.269531 186.40625 140.363281 186.285156 141.699219 C 185.921875 145.734375 185.496094 150.777344 181.820312 153.386719 C 181.152344 153.902344 180.394531 154.207031 179.605469 154.421875 Z M 179.605469 154.421875 " fill-opacity="1" fill-rule="evenodd"/></g><g fill="#242424" fill-opacity="1"><g transform="translate(101.636717, 275.125441)"><g><path d="M 40.140625 -17.21875 L 38.296875 -16.25 C 39.796875 -15.914062 40.8125 -15.242188 41.34375 -14.234375 C 41.882812 -13.222656 41.878906 -11.953125 41.328125 -10.421875 L 40.234375 -7.34375 C 40.015625 -6.707031 39.632812 -6.085938 39.09375 -5.484375 C 38.5625 -4.890625 37.945312 -4.394531 37.25 -4 L 30.765625 -0.6875 C 30.367188 -0.445312 29.957031 -0.269531 29.53125 -0.15625 C 29.101562 -0.0507812 28.671875 0 28.234375 0 L 2.890625 0 L 13.734375 -29.890625 L 35.265625 -29.890625 C 38.722656 -29.890625 41.203125 -29.1875 42.703125 -27.78125 C 44.203125 -26.375 44.414062 -24.1875 43.34375 -21.21875 L 43.125 -20.578125 C 42.875 -19.929688 42.488281 -19.304688 41.96875 -18.703125 C 41.445312 -18.109375 40.835938 -17.613281 40.140625 -17.21875 Z M 16.296875 -7.203125 L 26.71875 -7.203125 C 27.332031 -7.203125 27.929688 -7.367188 28.515625 -7.703125 C 29.097656 -8.046875 29.554688 -8.675781 29.890625 -9.59375 C 30.234375 -10.507812 30.234375 -11.128906 29.890625 -11.453125 C 29.554688 -11.773438 29.082031 -11.9375 28.46875 -11.9375 L 18 -11.9375 Z M 29.015625 -17.859375 C 29.628906 -17.859375 30.242188 -18.035156 30.859375 -18.390625 C 31.472656 -18.742188 31.929688 -19.378906 32.234375 -20.296875 C 32.578125 -21.210938 32.578125 -21.835938 32.234375 -22.171875 C 31.898438 -22.515625 31.441406 -22.6875 30.859375 -22.6875 L 21.90625 -22.6875 L 20.15625 -17.859375 Z M 29.015625 -17.859375 "/></g></g></g><g fill="#242424" fill-opacity="1"><g transform="translate(141.627852, 275.125441)"><g><path d="M 21.90625 -22.6875 L 20.34375 -18.328125 L 39.71875 -18.328125 L 37.25 -11.578125 L 17.859375 -11.578125 L 17.078125 -9.453125 C 16.867188 -8.847656 16.914062 -8.320312 17.21875 -7.875 C 17.53125 -7.425781 18.003906 -7.203125 18.640625 -7.203125 L 37.609375 -7.203125 L 35 0 L 12.21875 0 C 11.269531 0 10.582031 -0.226562 10.15625 -0.6875 L 6.0625 -4 C 5.664062 -4.394531 5.425781 -4.890625 5.34375 -5.484375 C 5.269531 -6.085938 5.34375 -6.707031 5.5625 -7.34375 L 13.734375 -29.890625 L 45.828125 -29.890625 L 43.21875 -22.6875 Z M 21.90625 -22.6875 "/></g></g></g><g fill="#5271ff" fill-opacity="1"><g transform="translate(179.191403, 275.125441)"><g><path d="M 15.15625 -3.8125 C 14.84375 -3.019531 14.320312 -2.4375 13.59375 -2.0625 L 10.234375 -0.375 C 9.835938 -0.125 9.410156 0 8.953125 0 L 2.890625 0 L 13.734375 -29.890625 L 45.234375 -29.890625 L 42.609375 -22.6875 L 22 -22.6875 L 20.4375 -18.328125 L 39.125 -18.328125 L 36.640625 -11.578125 L 17.953125 -11.578125 Z M 15.15625 -3.8125 "/></g></g></g><g fill="#5271ff" fill-opacity="1"><g transform="translate(215.50942, 275.125441)"><g><path d="M 16.03125 -3.8125 C 15.71875 -3.039062 15.210938 -2.457031 14.515625 -2.0625 L 11.15625 -0.375 C 10.757812 -0.125 10.316406 0 9.828125 0 L 3.859375 0 L 13.3125 -26.078125 C 13.625 -26.878906 14.144531 -27.460938 14.875 -27.828125 L 18.1875 -29.53125 C 18.582031 -29.769531 19.023438 -29.890625 19.515625 -29.890625 L 25.484375 -29.890625 Z M 16.03125 -3.8125 "/></g></g></g><g fill="#5271ff" fill-opacity="1"><g transform="translate(234.012787, 275.125441)"><g><path d="M 10.15625 -22.6875 L 12.765625 -29.890625 L 48.265625 -29.890625 L 45.640625 -22.6875 L 33.296875 -22.6875 L 26.453125 -3.8125 C 26.140625 -3.019531 25.617188 -2.4375 24.890625 -2.0625 L 21.578125 -0.375 C 21.179688 -0.125 20.738281 0 20.25 0 L 14.28125 0 L 22.5 -22.6875 Z M 10.15625 -22.6875 "/></g></g></g></svg>